# xmcd CD database file
#
# Track frame offsets:
#	150
#	42700
#	75709
#	123426
#	149860
#	188858
#	240546
#
# Disc length: 3694 seconds
#
# Revision: 0
# Processed by: cddbd v1.5.1PL0 Copyright (c) Steve Scherf et al.
# Submitted via: CDex 1.50beta10
#
DISCID=670e6c07
DTITLE=Gabor Winand - Agent Spirituel
DYEAR=2003
DGENRE=Jazz
TTITLE0=Sanctuary
TTITLE1=If I knew where to begin
TTITLE2=Searching for the light
TTITLE3=Let me know peace
TTITLE4=Friends like you
TTITLE5=Greeting from the Angel
TTITLE6=Time
EXTD=YEAR: 2003
EXTT0=
EXTT1=
EXTT2=
EXTT3=
EXTT4=
EXTT5=
EXTT6=
PLAYORDER=
